<?xml version="1.0" standalone="no"?>
<!DOCTYPE svg PUBLIC "-//W3C//DTD SVG 20010904//EN"
 "http://www.w3.org/TR/2001/REC-SVG-20010904/DTD/svg10.dtd">
<svg version="1.0" xmlns="http://www.w3.org/2000/svg"
 width="800.000000pt" height="800.000000pt" viewBox="0 0 800.000000 800.000000"
 preserveAspectRatio="xMidYMid meet">
<metadata>
Created by potrace 1.11, written by Peter Selinger 2001-2013
</metadata>
<g transform="translate(0.000000,800.000000) scale(0.100000,-0.100000)"
fill="#000000" stroke="none">
<path d="M629 6374 c-204 -40 -322 -153 -382 -362 l-27 -93 0 -1880 0 -1879
24 -68 c27 -78 64 -142 110 -190 37 -40 144 -100 240 -136 l68 -26 3389 0
3388 0 72 26 c131 47 226 140 301 292 l33 67 0 1940 0 1940 -39 88 c-33 75
-48 96 -110 152 -42 39 -102 81 -146 103 l-75 37 -3390 1 c-2780 1 -3402 -1
-3456 -12z m6770 -450 l21 -27 0 -1832 0 -1832 -21 -27 -20 -26 -357 0 -357 0
-224 375 c-123 207 -222 377 -220 379 2 2 38 18 79 35 412 171 718 547 818
1006 25 115 24 428 -1 540 -75 330 -234 598 -473 795 -452 372 -1075 423
-1587 131 -336 -193 -580 -537 -663 -936 -25 -122 -26 -393 -1 -517 46 -229
158 -465 298 -630 27 -31 49 -60 49 -65 0 -5 -1127 -8 -1409 -3 -2 0 14 19 36
43 142 154 264 402 314 637 29 138 32 390 6 522 -38 190 -115 376 -223 539
-69 105 -259 292 -368 364 -223 145 -460 222 -721 232 -541 22 -1048 -275
-1289 -757 -169 -338 -196 -712 -77 -1068 116 -346 370 -638 694 -797 62 -30
118 -55 125 -55 28 0 38 19 -309 -580 l-107 -185 -353 -3 c-350 -2 -353 -2
-376 20 l-23 21 0 1841 0 1840 22 23 21 23 3338 0 3338 0 20 -26z m-4845 -763
c102 -27 251 -98 335 -160 151 -112 264 -270 327 -455 13 -38 24 -71 24 -73 0
-2 -67 -3 -149 -3 l-150 0 -31 59 c-79 147 -230 276 -390 332 -94 33 -277 34
-370 1 -280 -97 -471 -346 -473 -617 -1 -112 14 -178 63 -280 114 -235 344
-384 595 -385 240 0 470 151 589 388 l26 52 145 0 145 0 -6 -27 c-10 -42 -40
-116 -75 -185 -130 -260 -389 -446 -694 -499 -106 -18 -290 -6 -399 25 -252
75 -451 233 -574 458 -78 142 -114 288 -113 458 1 455 322 838 776 926 98 19
297 12 399 -15z m3349 18 c79 -12 213 -57 292 -96 115 -58 268 -194 342 -303
57 -84 133 -254 133 -297 0 -10 -29 -13 -137 -13 l-138 0 -40 73 c-47 85 -165
207 -247 255 -139 82 -304 110 -453 77 -192 -42 -369 -184 -457 -365 -53 -109
-68 -170 -68 -278 0 -172 64 -317 199 -453 73 -73 100 -93 181 -132 109 -52
170 -67 275 -67 105 0 167 15 271 66 140 68 266 196 325 328 l20 46 134 0
c152 0 146 4 116 -81 -103 -300 -345 -525 -658 -611 -117 -32 -354 -32 -473 1
-229 62 -420 198 -549 392 -174 260 -207 581 -90 873 164 410 588 652 1022
585z m-3490 -474 c92 -19 180 -68 253 -141 59 -58 114 -151 130 -216 l6 -28
-251 0 -252 0 -24 -25 c-34 -33 -34 -87 0 -120 l24 -25 252 0 251 0 -6 -27
c-16 -68 -72 -159 -136 -224 -172 -172 -401 -193 -595 -54 -103 73 -172 171
-201 285 -70 276 161 568 466 589 8 0 45 -6 83 -14z m3514 -16 c119 -41 231
-143 289 -264 55 -113 71 -105 -206 -105 -290 0 -311 -6 -310 -88 1 -31 16
-54 47 -70 15 -8 99 -12 264 -12 l242 0 -7 -32 c-12 -59 -57 -139 -116 -201
-114 -122 -264 -181 -404 -159 -257 40 -458 302 -416 543 15 88 61 178 126
248 139 150 315 201 491 140z m-159 -1866 c26 -38 361 -599 368 -617 5 -13
-243 -14 -2098 -9 -1157 3 -2104 6 -2105 7 -1 1 82 146 184 324 l186 322 1723
0 1723 0 19 -27z"/>
</g>
</svg>
